<mxfile host="65bd71144e">
    <diagram id="v9WQ7-3fBDgSKG5Az64T" name="ページ1">
        <mxGraphModel dx="1577" dy="516" grid="1" gridSize="10" guides="1" tooltips="1" connect="1" arrows="1" fold="1" page="1" pageScale="1" pageWidth="827" pageHeight="1169" math="0" shadow="0">
            <root>
                <mxCell id="0"/>
                <mxCell id="1" parent="0"/>
                <mxCell id="2" value="" style="edgeStyle=none;html=1;" edge="1" parent="1" source="3" target="5">
                    <mxGeometry relative="1" as="geometry"/>
                </mxCell>
                <mxCell id="3" value="&lt;font style=&quot;font-size: 18px;&quot;&gt;開始&lt;/font&gt;" style="rounded=1;whiteSpace=wrap;html=1;" vertex="1" parent="1">
                    <mxGeometry x="120" y="40" width="120" height="60" as="geometry"/>
                </mxCell>
                <mxCell id="40" value="" style="edgeStyle=none;html=1;" edge="1" parent="1" source="5" target="39">
                    <mxGeometry relative="1" as="geometry"/>
                </mxCell>
                <mxCell id="5" value="初期化" style="rounded=0;whiteSpace=wrap;html=1;fontSize=18;" vertex="1" parent="1">
                    <mxGeometry x="120" y="180" width="120" height="60" as="geometry"/>
                </mxCell>
                <mxCell id="6" value="" style="edgeStyle=none;html=1;" edge="1" parent="1" source="7" target="10">
                    <mxGeometry relative="1" as="geometry"/>
                </mxCell>
                <mxCell id="7" value="シミュレート回数" style="shape=trapezoid;perimeter=trapezoidPerimeter;whiteSpace=wrap;html=1;fixedSize=1;fontSize=18;rounded=0;" vertex="1" parent="1">
                    <mxGeometry x="90" y="460" width="180" height="60" as="geometry"/>
                </mxCell>
                <mxCell id="8" value="" style="edgeStyle=none;html=1;" edge="1" parent="1" source="10" target="13">
                    <mxGeometry relative="1" as="geometry"/>
                </mxCell>
                <mxCell id="9" style="edgeStyle=none;html=1;exitX=1;exitY=0.5;exitDx=0;exitDy=0;" edge="1" parent="1" source="10">
                    <mxGeometry relative="1" as="geometry">
                        <mxPoint x="180" y="1081" as="targetPoint"/>
                        <Array as="points">
                            <mxPoint x="320" y="630"/>
                            <mxPoint x="320" y="1080"/>
                        </Array>
                    </mxGeometry>
                </mxCell>
                <mxCell id="10" value="客が&lt;br&gt;存在" style="rhombus;whiteSpace=wrap;html=1;fontSize=18;rounded=0;" vertex="1" parent="1">
                    <mxGeometry x="140" y="590" width="80" height="80" as="geometry"/>
                </mxCell>
                <mxCell id="11" value="" style="edgeStyle=none;html=1;" edge="1" parent="1" source="13" target="15">
                    <mxGeometry relative="1" as="geometry"/>
                </mxCell>
                <mxCell id="12" style="edgeStyle=none;html=1;exitX=1;exitY=0.5;exitDx=0;exitDy=0;" edge="1" parent="1" source="13">
                    <mxGeometry relative="1" as="geometry">
                        <mxPoint x="180" y="1080" as="targetPoint"/>
                        <Array as="points">
                            <mxPoint x="320" y="805"/>
                            <mxPoint x="320" y="1080"/>
                        </Array>
                    </mxGeometry>
                </mxCell>
                <mxCell id="13" value="サービス&lt;br&gt;完了する確率" style="rhombus;whiteSpace=wrap;html=1;fontSize=18;rounded=0;" vertex="1" parent="1">
                    <mxGeometry x="125" y="750" width="110" height="110" as="geometry"/>
                </mxCell>
                <mxCell id="14" value="" style="edgeStyle=none;html=1;" edge="1" parent="1" source="15" target="18">
                    <mxGeometry relative="1" as="geometry"/>
                </mxCell>
                <mxCell id="15" value="待ち行列--" style="whiteSpace=wrap;html=1;fontSize=18;rounded=0;" vertex="1" parent="1">
                    <mxGeometry x="120" y="965" width="120" height="60" as="geometry"/>
                </mxCell>
                <mxCell id="16" value="" style="edgeStyle=none;html=1;" edge="1" parent="1" source="18" target="21">
                    <mxGeometry relative="1" as="geometry"/>
                </mxCell>
                <mxCell id="17" style="edgeStyle=none;html=1;exitX=1;exitY=0.5;exitDx=0;exitDy=0;" edge="1" parent="1" source="18">
                    <mxGeometry relative="1" as="geometry">
                        <mxPoint x="180" y="1440" as="targetPoint"/>
                        <Array as="points">
                            <mxPoint x="310" y="1170"/>
                            <mxPoint x="310" y="1440"/>
                        </Array>
                    </mxGeometry>
                </mxCell>
                <mxCell id="18" value="客が&lt;br&gt;10人以上" style="rhombus;whiteSpace=wrap;html=1;fontSize=18;rounded=0;" vertex="1" parent="1">
                    <mxGeometry x="140" y="1130" width="80" height="80" as="geometry"/>
                </mxCell>
                <mxCell id="19" style="edgeStyle=none;html=1;exitX=0;exitY=0.5;exitDx=0;exitDy=0;entryX=0;entryY=0.5;entryDx=0;entryDy=0;" edge="1" parent="1" source="21" target="7">
                    <mxGeometry relative="1" as="geometry">
                        <Array as="points">
                            <mxPoint x="20" y="1345"/>
                            <mxPoint x="20" y="490"/>
                        </Array>
                    </mxGeometry>
                </mxCell>
                <mxCell id="20" value="" style="edgeStyle=none;html=1;" edge="1" parent="1" source="21" target="24">
                    <mxGeometry relative="1" as="geometry"/>
                </mxCell>
                <mxCell id="21" value="時間++&lt;br&gt;あふれ回数++&lt;br&gt;待ち行列の&lt;br&gt;合計++&lt;br&gt;continue" style="whiteSpace=wrap;html=1;fontSize=18;rounded=0;" vertex="1" parent="1">
                    <mxGeometry x="85" y="1290" width="190" height="110" as="geometry"/>
                </mxCell>
                <mxCell id="22" value="" style="edgeStyle=none;html=1;" edge="1" parent="1" source="24" target="26">
                    <mxGeometry relative="1" as="geometry"/>
                </mxCell>
                <mxCell id="23" style="edgeStyle=none;html=1;exitX=1;exitY=0.5;exitDx=0;exitDy=0;" edge="1" parent="1" source="24">
                    <mxGeometry relative="1" as="geometry">
                        <mxPoint x="180" y="1730" as="targetPoint"/>
                        <Array as="points">
                            <mxPoint x="310" y="1520"/>
                            <mxPoint x="310" y="1730"/>
                        </Array>
                    </mxGeometry>
                </mxCell>
                <mxCell id="24" value="客が&lt;br&gt;到着" style="rhombus;whiteSpace=wrap;html=1;fontSize=18;rounded=0;" vertex="1" parent="1">
                    <mxGeometry x="140" y="1480" width="80" height="80" as="geometry"/>
                </mxCell>
                <mxCell id="25" value="" style="edgeStyle=none;html=1;" edge="1" parent="1" source="26" target="29">
                    <mxGeometry relative="1" as="geometry"/>
                </mxCell>
                <mxCell id="26" value="待ち行列++" style="whiteSpace=wrap;html=1;fontSize=18;rounded=0;" vertex="1" parent="1">
                    <mxGeometry x="107.5" y="1640" width="145" height="50" as="geometry"/>
                </mxCell>
                <mxCell id="27" style="edgeStyle=none;html=1;exitX=1;exitY=0.5;exitDx=0;exitDy=0;entryX=0;entryY=0.5;entryDx=0;entryDy=0;" edge="1" parent="1" source="36" target="7">
                    <mxGeometry relative="1" as="geometry">
                        <Array as="points">
                            <mxPoint y="1978"/>
                            <mxPoint y="490"/>
                        </Array>
                    </mxGeometry>
                </mxCell>
                <mxCell id="28" value="" style="edgeStyle=none;html=1;fontSize=18;" edge="1" parent="1" source="29" target="36">
                    <mxGeometry relative="1" as="geometry"/>
                </mxCell>
                <mxCell id="29" value="シミュレーション回数++&lt;br&gt;待ち行列合計に現在の待ち行列を+" style="whiteSpace=wrap;html=1;fontSize=18;rounded=0;" vertex="1" parent="1">
                    <mxGeometry x="70" y="1770" width="220" height="90" as="geometry"/>
                </mxCell>
                <mxCell id="30" value="" style="edgeStyle=none;html=1;fontSize=18;" edge="1" parent="1" source="31" target="33">
                    <mxGeometry relative="1" as="geometry"/>
                </mxCell>
                <mxCell id="31" value="待ち行列合計の平均&lt;br&gt;溢れ率を計算" style="whiteSpace=wrap;html=1;fontSize=18;rounded=0;" vertex="1" parent="1">
                    <mxGeometry x="95" y="2250" width="170" height="105" as="geometry"/>
                </mxCell>
                <mxCell id="32" value="" style="edgeStyle=none;html=1;" edge="1" parent="1" source="33">
                    <mxGeometry relative="1" as="geometry">
                        <mxPoint x="180" y="2565.5" as="targetPoint"/>
                    </mxGeometry>
                </mxCell>
                <mxCell id="33" value="それぞれ表示" style="whiteSpace=wrap;html=1;fontSize=18;rounded=0;" vertex="1" parent="1">
                    <mxGeometry x="120" y="2430" width="120" height="60" as="geometry"/>
                </mxCell>
                <mxCell id="34" value="&lt;font style=&quot;font-size: 18px;&quot;&gt;終了&lt;/font&gt;" style="rounded=1;whiteSpace=wrap;html=1;" vertex="1" parent="1">
                    <mxGeometry x="120" y="2568" width="120" height="60" as="geometry"/>
                </mxCell>
                <mxCell id="43" value="" style="edgeStyle=none;html=1;" edge="1" parent="1" source="36" target="42">
                    <mxGeometry relative="1" as="geometry"/>
                </mxCell>
                <mxCell id="36" value="シミュレート回数分&lt;br&gt;終了" style="shape=trapezoid;perimeter=trapezoidPerimeter;whiteSpace=wrap;html=1;fixedSize=1;fontSize=18;rounded=0;direction=west;" vertex="1" parent="1">
                    <mxGeometry x="90" y="1940" width="180" height="75" as="geometry"/>
                </mxCell>
                <mxCell id="41" value="" style="edgeStyle=none;html=1;" edge="1" parent="1" source="39" target="7">
                    <mxGeometry relative="1" as="geometry"/>
                </mxCell>
                <mxCell id="39" value="for文&lt;br&gt;26回" style="shape=trapezoid;perimeter=trapezoidPerimeter;whiteSpace=wrap;html=1;fixedSize=1;fontSize=18;rounded=0;" vertex="1" parent="1">
                    <mxGeometry x="120" y="320" width="120" height="60" as="geometry"/>
                </mxCell>
                <mxCell id="44" style="edgeStyle=none;html=1;exitX=1;exitY=0.5;exitDx=0;exitDy=0;entryX=0;entryY=0.5;entryDx=0;entryDy=0;" edge="1" parent="1" source="42" target="39">
                    <mxGeometry relative="1" as="geometry">
                        <Array as="points">
                            <mxPoint x="-30" y="2133"/>
                            <mxPoint x="-30" y="350"/>
                        </Array>
                    </mxGeometry>
                </mxCell>
                <mxCell id="45" value="" style="edgeStyle=none;html=1;" edge="1" parent="1" source="42" target="31">
                    <mxGeometry relative="1" as="geometry"/>
                </mxCell>
                <mxCell id="42" value="for文&lt;br&gt;終了" style="shape=trapezoid;perimeter=trapezoidPerimeter;whiteSpace=wrap;html=1;fixedSize=1;fontSize=18;rounded=0;direction=west;" vertex="1" parent="1">
                    <mxGeometry x="120" y="2102.5" width="120" height="60" as="geometry"/>
                </mxCell>
            </root>
        </mxGraphModel>
    </diagram>
</mxfile>